<svg xmlns="http://www.w3.org/2000/svg" version="1.1" xmlns:xlink="http://www.w3.org/1999/xlink" xmlns:svgjs="http://svgjs.dev/svgjs" width="1500" height="1168" viewBox="0 0 1500 1168"><g transform="matrix(1,0,0,1,-0.6611721756993347,0.4728744939270655)"><svg viewBox="0 0 317 247" data-background-color="#ffffff" preserveAspectRatio="xMidYMid meet" height="1168" width="1500" xmlns="http://www.w3.org/2000/svg" xmlns:xlink="http://www.w3.org/1999/xlink"><g id="tight-bounds" transform="matrix(1,0,0,1,0.13972771979780418,-0.09999999999999432)"><svg viewBox="0 0 316.7205445604044 247.2" height="247.2" width="316.7205445604044"><g><svg viewBox="0 0 380.06465347248525 296.64" height="247.2" width="316.7205445604044"><g><rect width="22.292751110399998" height="296.64" x="150.4300289061611" y="0" fill="#000000" opacity="1" stroke-width="0" stroke="transparent" fill-opacity="1" class="rect-qz-0" data-fill-palette-color="primary" rx="1%" id="qz-0" data-palette-color="#000000"></rect></g><g transform="matrix(1,0,0,1,231.0807672165611,24.72)"><svg viewBox="0 0 148.98388625592415 247.2" height="247.2" width="148.98388625592415"><g id="textblocktransform"><svg viewBox="0 0 148.98388625592415 247.2" height="247.2" width="148.98388625592415" id="textblock"><g><svg viewBox="0 0 148.98388625592415 247.2" height="247.2" width="148.98388625592415"><g transform="matrix(1,0,0,1,0,0)"><svg width="148.98388625592415" viewBox="1.61 -30.66 18.63 30.900000000000002" height="247.2" data-palette-color="#000000"><path d="M10.6 0.24Q8.2 0.24 6.14-0.28 4.08-0.81 2.84-1.55 1.61-2.29 1.61-2.91L1.61-2.91Q1.61-3.25 1.89-3.81 2.17-4.37 2.54-4.81 2.91-5.25 3.13-5.25L3.13-5.25Q3.32-5.25 3.98-4.86L3.98-4.86Q5.49-4.08 6.98-3.56 8.47-3.05 10.6-3.05L10.6-3.05Q12.26-3.05 13.55-3.69 14.84-4.32 15.56-5.48 16.28-6.64 16.28-8.15L16.28-8.15Q16.28-9.77 15.42-10.83 14.55-11.89 13.32-12.51 12.08-13.13 9.74-14.06L9.74-14.06Q7.2-15.04 5.73-15.88 4.25-16.72 3.21-18.33 2.17-19.95 2.17-22.61L2.17-22.61Q2.17-24.93 3.37-26.77 4.57-28.61 6.76-29.64 8.96-30.66 11.82-30.66L11.82-30.66Q13.11-30.66 14.77-30.31 16.43-29.96 17.61-29.35 18.8-28.74 18.8-28L18.8-28Q18.8-27.69 18.54-27.14 18.29-26.59 17.94-26.15 17.6-25.71 17.41-25.71L17.41-25.71Q17.19-25.71 16.53-26.07L16.53-26.07Q15.43-26.66 14.36-27.01 13.28-27.37 11.74-27.37L11.74-27.37Q9.23-27.37 7.68-26.07 6.13-24.78 6.13-22.46L6.13-22.46Q6.13-21.07 6.81-20.17 7.5-19.26 8.54-18.73 9.59-18.19 11.47-17.48L11.47-17.48Q11.6-17.46 12.04-17.29L12.04-17.29Q14.62-16.28 16.27-15.34 17.92-14.4 19.08-12.65 20.24-10.89 20.24-8.15L20.24-8.15Q20.24-5.59 19.06-3.69 17.87-1.78 15.69-0.77 13.5 0.24 10.6 0.24L10.6 0.24Z" opacity="1" transform="matrix(1,0,0,1,0,0)" fill="#000000" class="wordmark-text-0" data-fill-palette-color="primary" id="text-0"></path></svg></g></svg></g></svg></g></svg></g><g transform="matrix(1,0,0,1,0,67.756963507109)"><svg viewBox="0 0 92.07204170616112 161.12607298578197" height="161.12607298578197" width="92.07204170616112"><g><svg xmlns="http://www.w3.org/2000/svg" xmlns:xlink="http://www.w3.org/1999/xlink" version="1.1" x="0" y="0" viewBox="30 15 40 70" enable-background="new 0 0 100 100" xml:space="preserve" height="161.12607298578197" width="92.07204170616112" class="icon-icon-0" data-fill-palette-color="accent" id="icon-0"><circle cx="62.5" cy="50" r="2.5" fill="#000000" data-fill-palette-color="accent"></circle><circle fill="#000000" cx="37.5" cy="22.5" r="2.5" data-fill-palette-color="accent"></circle><circle fill="#000000" cx="62.5" cy="77.5" r="2.5" data-fill-palette-color="accent"></circle><circle fill="#000000" cx="37.5" cy="50" r="7.5" data-fill-palette-color="accent"></circle><circle fill="#000000" cx="37.5" cy="77.5" r="7.5" data-fill-palette-color="accent"></circle><circle fill="#000000" cx="62.5" cy="22.5" r="7.5" data-fill-palette-color="accent"></circle></svg></g></svg></g></svg></g><defs></defs></svg><rect width="316.7205445604044" height="247.2" fill="none" stroke="none" visibility="hidden"></rect></g></svg></g></svg>